# xmcd CD database file
#
# Track frame offsets:
#	182
#	15347
#	28657
#	40890
#	53160
#	66772
#	79340
#	93160
#	106082
#	120592
#	132605
#	146357
#	157040
#	170537
#	186040
#	197247
#	208802
#	220457
#
# Disc length: 3091 seconds
#
# Revision: 8
# Processed by: cddbd v1.5.2PL0 Copyright (c) Steve Scherf et al.
# Submitted via: CDex 1.70beta2
#
DISCID=010c1112
DTITLE=Various Artist - Acoustic to Electric Blues  (1 of 2)
DYEAR=1992
DGENRE=Blues
TTITLE0=mississippi john hurt - frankie
TTITLE1=mississippi john hurt - stack o'lee blues
TTITLE2=mississippi john hurt - candy man blues
TTITLE3=blind lemon jefferson - jack o'diamonds
TTITLE4=blind lemon jefferson - hangman's blues
TTITLE5=blind lemon jefferson - low down mojo blues
TTITLE6=leadbelly - midnight special
TTITLE7=leadbelly - good morning blues
TTITLE8=leadbelly - easy rider
TTITLE9=robert johnson - cross road blues
TTITLE10=robert johnson - sweet home chicago
TTITLE11=robert johnson - love in vain
TTITLE12=woody guthrie - house of the rising sun
TTITLE13=woody guthrie - mean talking blues
TTITLE14=woody guthrie - little black train
TTITLE15=lightnin' hopkins - black cat
TTITLE16=lightnin' hopkins - house upon the hill
TTITLE17=lightnin' hopkins - someday baby
EXTD=YEAR: 1992
EXTT0=
EXTT1=
EXTT2=
EXTT3=
EXTT4=
EXTT5=
EXTT6=
EXTT7=
EXTT8=
EXTT9=
EXTT10=
EXTT11=
EXTT12=
EXTT13=
EXTT14=
EXTT15=
EXTT16=
EXTT17=
PLAYORDER=
